<?xml version="1.0" encoding="utf-8"?>
<!-- Generator: Adobe Illustrator 20.1.0, SVG Export Plug-In . SVG Version: 6.00 Build 0)  -->
<svg version="1.1" xmlns="http://www.w3.org/2000/svg" xmlns:xlink="http://www.w3.org/1999/xlink" x="0px" y="0px"
	 viewBox="0 0 179.5 300.3" style="enable-background:new 0 0 179.5 300.3;" xml:space="preserve">
<style type="text/css">
	.st0{fill:#2B2E31;stroke:#8DC63F;stroke-miterlimit:10;}
	.st1{fill:none;stroke:#8DC63F;stroke-miterlimit:10;}
	.st2{fill:none;stroke:#EE2A7B;stroke-miterlimit:10;}
	.st3{fill:#2B2E31;stroke:#EE2A7B;stroke-miterlimit:10;}
	.st4{fill:none;stroke:#F7941D;stroke-miterlimit:10;}
	.st5{fill:#2B2E31;stroke:#F7941D;stroke-miterlimit:10;}
	.st6{fill:#662D91;}
	.st7{fill:#662D91;stroke:#FFFFFF;stroke-miterlimit:10;}
	.st8{fill:none;stroke:#FFFFFF;stroke-miterlimit:10;}
	.st9{fill:#2B2E31;stroke:#4EC9F5;stroke-miterlimit:10;}
	.st10{fill:#FFFFFF;stroke:#231F20;stroke-miterlimit:10;}
</style>
<g id="Layer_1">
	<title>selectionimg</title>
	<a xlink:href="/knees.html" target="_top">
		<g id="Layer_1_1_">
			<path class="st0" d="M65.9,227l-17.5,40.3L65.9,227z"/>
			<line class="st1" x1="85.4" y1="236.2" x2="84.3" y2="274.9"/>
			<circle class="st0" cx="64.8" cy="279.7" r="20"/>
			<path class="st0" d="M114.3,225.8l17.5,40.3L114.3,225.8z"/>
			<line class="st1" x1="94.8" y1="235" x2="95.9" y2="273.7"/>
			<circle class="st0" cx="115.4" cy="278.5" r="20"/>
		</g>
	</a>
</g>
  <a xlink:href="/LeftArm.html" target="_top">
<g id="Layer_2">
	<line class="st2" x1="121" y1="150.1" x2="163.1" y2="184.4"/>
	<path class="st3" d="M163.1,183c0.1,3.2,2.7,6.5,1.1,9.3c-0.4,0.7-1,1.2-1.6,1.7c-4.5,3.5-10.2,4.9-15.8,3.9
		c-5.6-1.1-10.3-4.9-12.5-10.1"/>
</g>
  </a>
  <a xlink:href="/RightArm.html" target="_top">
<g id="Layer_5">
	<line class="st4" x1="57.1" y1="150.1" x2="15.1" y2="184.3"/>
	<path class="st5" d="M15.1,183c-0.1,3.2-2.7,6.5-1.1,9.3c0.4,0.7,1,1.2,1.6,1.7c4.5,3.5,10.2,4.9,15.8,3.9
		c5.6-1.1,10.3-4.9,12.5-10.1"/>
</g>
  </a>
  <a xlink:href="/back.html" target="_top">
<g id="Layer_3">
	<ellipse class="st6" cx="88.7" cy="183.9" rx="42.2" ry="51.9"/>
	<ellipse class="st7" cx="88.5" cy="182.9" rx="27.7" ry="37.8"/>
	<line class="st8" x1="75.2" y1="152.8" x2="75.2" y2="220.7"/>
	<line class="st8" x1="88.5" y1="139.9" x2="88.5" y2="230.2"/>
	<line class="st8" x1="101.6" y1="152.8" x2="101.6" y2="220.7"/>
</g>
  </a>
  <a xlink:href="/Head.html" target="_top">
<g id="Layer_4">
	<rect x="1" y="5.3" class="st9" width="178.5" height="126.9"/>
	<circle class="st10" cx="45.2" cy="89.1" r="14.1"/>
	<circle class="st10" cx="134.6" cy="89.1" r="14.3"/>
</g>
  </a>
</svg>
