<?xml version="1.0" encoding="utf-8"?>
<!-- Generator: Adobe Illustrator 20.1.0, SVG Export Plug-In . SVG Version: 6.00 Build 0)  -->
<svg version="1.1" id="Layer_1" xmlns="http://www.w3.org/2000/svg" xmlns:xlink="http://www.w3.org/1999/xlink" x="0px" y="0px"
	 viewBox="0 0 179.5 744.3" style="enable-background:new 0 0 179.5 744.3;" xml:space="preserve">
<style type="text/css">
	.st0{fill:none;stroke:#4EC9F5;stroke-miterlimit:10;}
	.st1{fill:#4EC9F5;stroke:#4EC9F5;stroke-miterlimit:10;}
	.st2{fill:none;stroke:#FFFFFF;stroke-miterlimit:10;}
	.st3{fill:#231F20;stroke:#FFFFFF;stroke-miterlimit:10;}
</style>
<title>selectionimg</title>
<a xlink:href="knees.html" >
	<g id="Layer_1_1_">
		<path class="st0" d="M65.9,671l-17.5,40.3L65.9,671z"/>
		<line class="st0" x1="85.4" y1="680.2" x2="84.3" y2="718.9"/>
		<circle class="st0" cx="64.8" cy="723.7" r="20"/>
		<path class="st0" d="M114.3,669.8l17.5,40.3L114.3,669.8z"/>
		<line class="st0" x1="94.8" y1="679" x2="95.9" y2="717.7"/>
		<circle class="st0" cx="115.4" cy="722.5" r="20"/>
	</g>
</a>
<line class="st0" x1="159.9" y1="449.5" x2="159.9" y2="2.1"/>
<line class="st0" x1="120.1" y1="592" x2="162.2" y2="626.2"/>
<path class="st0" d="M162.2,624.9c0.1,3.2,2.7,6.5,1.1,9.3c-0.4,0.7-1,1.2-1.6,1.7c-4.5,3.5-10.2,4.9-15.8,3.9
	c-5.6-1.1-10.3-4.9-12.5-10.1"/>
<line class="st0" x1="57.8" y1="596" x2="15.8" y2="630.3"/>
<path class="st0" d="M15.7,628.9c-0.1,3.2-2.7,6.5-1.1,9.3c0.4,0.7,1,1.2,1.6,1.7c4.5,3.5,10.2,4.9,15.8,3.9
	c5.6-1.1,10.3-4.9,12.5-10.1"/>
<line class="st0" x1="16.6" y1="449.5" x2="16.6" y2="2.1"/>
<line class="st0" x1="58.8" y1="450.5" x2="58.6" y2="1.5"/>
<line class="st0" x1="119.6" y1="449.5" x2="119.4" y2="1.5"/>
<ellipse class="st1" cx="89.2" cy="628.1" rx="42.2" ry="51.9"/>
<ellipse class="st2" cx="89" cy="627.2" rx="27.7" ry="37.8"/>
<line class="st2" x1="75.7" y1="597" x2="75.7" y2="664.9"/>
<line class="st2" x1="89" y1="584.1" x2="89" y2="674.4"/>
<line class="st2" x1="102" y1="597" x2="102" y2="664.9"/>
<rect x="0.5" y="449.5" class="st0" width="178.5" height="126.9"/>
<circle class="st3" cx="44.2" cy="533.3" r="14.1"/>
<circle class="st3" cx="133.6" cy="533.3" r="14.3"/>
<line class="st0" x1="71.6" y1="449.5" x2="71.6" y2="1.5"/>
<line class="st0" x1="108.8" y1="449.5" x2="108.8" y2="-0.4"/>
<line class="st0" x1="119.6" y1="593" x2="119.4" y2="576.6"/>
<line class="st0" x1="58.8" y1="593.3" x2="58.6" y2="576.9"/>
<line class="st0" x1="159.9" y1="624.4" x2="159.9" y2="575.7"/>
<line class="st0" x1="16.6" y1="630.3" x2="16.6" y2="577"/>
</svg>
